<!-- Generated by IcoMoon.io -->
<svg version="1.1" xmlns="http://www.w3.org/2000/svg" width="512" height="512" viewBox="0 0 512 512">
<title>refresh</title>
<g id="icomoon-ignore">
</g>
<path d="M591.914-32.002c0.030 0.024 0.062 0.055 0.086 0.086v575.828c-0.024 0.030-0.056 0.062-0.086 0.086h-671.829c-0.031-0.024-0.062-0.056-0.085-0.086v-575.83c0.024-0.030 0.055-0.062 0.085-0.085h671.829zM592-80h-672c-26.399 0-47.999 21.599-47.999 47.998v576c0 26.399 21.6 47.999 47.999 47.999h672c26.399 0 47.999-21.6 47.999-47.999v-576c0-26.399-21.6-47.999-47.999-47.999v0z"></path>
<path d="M83.556 132.445c0 22.091 17.908 40 39.999 40s39.999-17.908 39.999-40-17.908-39.999-39.999-39.999-39.999 17.908-39.999 39.999z"></path>
<path d="M-8.002 522.666h528v-88l-154-264.002-176.001 220h-43.999l-154-131.999z"></path>
</svg>
